<svg id="Layer_1" data-name="Layer 1" xmlns="http://www.w3.org/2000/svg" viewBox="0 0 228.66 39.08"><defs><style>.cls-1,.cls-6{fill:#446839;}.cls-2{fill:#436839;}.cls-3{fill:#607458;}.cls-4{fill:#8c9682;}.cls-5{fill:#808d75;}.cls-6{font-size:32.42px;font-family:BellMTItalic, Bell MT;}.cls-7{fill:#a2cc39;}.cls-8{fill:#f5f4c6;}</style></defs><path class="cls-1" d="M15.88,28.92A20.21,20.21,0,0,0,48.64,18.49c.28-1.15.42-2.31.62-3.63.86,5.93-2.28,14.45-10.17,18.55a19.28,19.28,0,0,1-23.41-4.29C15.65,28.94,15.69,28.86,15.88,28.92Z"/><path class="cls-2" d="M9.92,13.56a20.44,20.44,0,0,0,2.05,13,20.16,20.16,0,0,0,24.69,9.53,2,2,0,0,1,.37-.07c.19-.08.39-.18.39.17a17.24,17.24,0,0,1-10.87,2.42c-8.64-.92-14.38-5.59-17.06-13.86a18.31,18.31,0,0,1,.23-11.61C10.09,13.14,10,13.37,9.92,13.56Z"/><path class="cls-2" d="M20.61.33C13.24,3.3,8.48,8.52,7.23,16.44S9,30.75,15,35.89C9.44,33.36,3.91,25.83,5.1,16.63,6.15,8.46,13.72.52,20.61.33Z"/><path class="cls-3" d="M37.42,36.22,37,36.05l2-1A3.17,3.17,0,0,1,37.42,36.22Z"/><path class="cls-4" d="M15.88,28.92l-.2.2-1-1.1.19-.2Z"/><path class="cls-5" d="M9.92,13.56l-.2-.39.41-1.23A2.79,2.79,0,0,1,9.92,13.56Z"/><text class="cls-6" transform="translate(46.56 30.75)">Pumiportfolio</text><rect class="cls-1" x="25.05" y="7.83" width="3.93" height="25.1"/><path class="cls-1" d="M36.65,7.83H30.57v3.43h4.58a1.41,1.41,0,0,1,1.23,1.54V17a1.41,1.41,0,0,1-1.23,1.54H30.57V21.3h6.08c2.56,0,4.63-2.61,4.63-5.83V13.65C41.28,10.43,39.21,7.83,36.65,7.83Z"/><path class="cls-7" d="M39.7,9.78S46.56,19,33.6,23.25a13.92,13.92,0,0,0-8.51,4.91S24.14,19,31.2,17.58A11,11,0,0,0,39.7,9.78Z"/><path class="cls-8" d="M39,15s-1,4.86-7.59,6.38a10.78,10.78,0,0,0-6.33,6.8s.12-6,6-7.89S39,15,39,15Z"/><rect class="cls-1" x="18.94" y="3.2" width="11.83" height="3.45"/><rect class="cls-1" x="18.94" y="3.2" width="3.92" height="25.1"/><path class="cls-1" d="M30.54,3.2H24.46V6.64H29a1.4,1.4,0,0,1,1.22,1.54v4.23A1.39,1.39,0,0,1,29,13.94H24.46v2.73h6.08c2.55,0,4.63-2.6,4.63-5.82V9C35.17,5.81,33.09,3.2,30.54,3.2Z"/><path class="cls-7" d="M33.58,5.16s6.87,9.19-6.09,13.46A13.94,13.94,0,0,0,19,23.54S18,14.42,25.09,13A11,11,0,0,0,33.58,5.16Z"/><path class="cls-8" d="M32.85,10.35s-1.05,4.87-7.58,6.38a10.78,10.78,0,0,0-6.33,6.81s.12-6.05,6-7.89S32.85,10.35,32.85,10.35Z"/><rect class="cls-1" x="25.05" y="7.83" width="11.83" height="3.45"/></svg>